<svg id="Layer_1" data-name="Layer 1" xmlns="http://www.w3.org/2000/svg" width="724.8821" height="361.4124" viewBox="0 0 724.8821 361.4124"><defs><style>.cls-1{fill:#0064ba;}.cls-2{fill:#003d8b;}.cls-3{fill:#0087e8;}.cls-4{fill:#06b2ff;}.cls-5{fill:#fff;}</style></defs><path class="cls-1" d="M856.338,452.4983c0,28.85,31.5174,64.4084,31.5174,64.4084V452.4983Z" transform="translate(-212 -325.0221)"/><path class="cls-2" d="M919.3729,452.4983c0,28.85-31.5175,64.4084-31.5175,64.4084V452.4983Z" transform="translate(-212 -325.0221)"/><path class="cls-1" d="M856.338,452.4983a31.5174,31.5174,0,0,0,31.5174,31.5174V420.9809A31.5174,31.5174,0,0,0,856.338,452.4983Z" transform="translate(-212 -325.0221)"/><path class="cls-2" d="M919.3729,452.4983a31.5174,31.5174,0,0,1-31.5175,31.5174V420.9809A31.5174,31.5174,0,0,1,919.3729,452.4983Z" transform="translate(-212 -325.0221)"/><path class="cls-3" d="M864.2923,452.4983a23.5632,23.5632,0,0,0,23.5632,23.5632V428.9351A23.5632,23.5632,0,0,0,864.2923,452.4983Z" transform="translate(-212 -325.0221)"/><path class="cls-1" d="M887.8555,428.9351v47.1264a23.5632,23.5632,0,0,0,0-47.1264Z" transform="translate(-212 -325.0221)"/><circle class="cls-4" cx="887.7365" cy="452.4281" r="17.7666" transform="translate(79.7412 925.8776) rotate(-80.2669)"/><path class="cls-5" d="M885.5465,468.7194l-.27-.4319a.5419.5419,0,0,1,.1163-.7066l2.161-1.7681a.495.495,0,0,0,.1815-.3853l-.0027-.5144a.49.49,0,0,1,.3094-.4579l.0072-.0029a.5008.5008,0,0,0,.3111-.3851c.041-.2517.1023-.6219.1458-.8841a.4971.4971,0,0,1,.3605-.3984l1.371-.3724a.6933.6933,0,0,0,.51-.7061l-.0595-1.1076a.695.695,0,0,1,.092-.384l.7177-1.2419a.7188.7188,0,0,0,.0863-.4788l-.0295-.1751a.6885.6885,0,0,0-.6091-.5708l-.0141-.0015a.6994.6994,0,0,1-.56-.3936c-.0586-.1223-.1251-.2593-.1843-.3808a.6914.6914,0,0,0-.5447-.3846l-1.6018-.1794a.7273.7273,0,0,1-.4926-.2757l-.75-.9619a.7274.7274,0,0,0-.4094-.2613l-.8956-.2075a.7271.7271,0,0,1-.4991-.4105l-.0668-.1486a.727.727,0,0,0-.6448-.4291l-.5987-.0151a.7272.7272,0,0,1-.5949-.3365l-.1132-.1779a.7223.7223,0,0,0-.5438-.3314l-.68-.0619a.7065.7065,0,0,0-.7.3955l-.003.0062a.72.72,0,0,1-.1978.2488c-.2511.2016-.7879.631-.7879.631l-.89-.3469a.36.36,0,0,1-.2238-.2718l-.12-.668a.36.36,0,0,1-.0045-.0944l.0446-.5233a.3554.3554,0,0,0-.2523-.3706l-.2131-.0639a.3543.3543,0,0,1-.1974-.53l.0067-.01a.362.362,0,0,0-.2067-.5444c-.1006-.028-.2-.056-.2772-.0779a.36.36,0,0,0-.2855.0391l-.95.578a.36.36,0,0,1-.3581.0094l-.3294-.1773a.36.36,0,0,1-.1889-.3367l.0481-.8913a.5509.5509,0,0,1,.1879-.3852l1.2328-1.0751a.551.551,0,0,1,.379-.1353l.6308.02a.5505.5505,0,0,1,.4712.296l.3911.7513a.55.55,0,0,0,.4883.2964h0a.5506.5506,0,0,0,.5505-.5428l.0088-.6284a.55.55,0,0,1,.0581-.2384l.3288-.6576a.55.55,0,0,1,.2413-.2439l2.9965-1.5353a.5509.5509,0,0,0,.24-.24l.8645-1.6976a.5937.5937,0,0,1,.1622-.1971l.5771-.4516a.5914.5914,0,0,1,.364-.1255h1.7228a.59.59,0,0,0,.545-.3633l.01-.0245a.5905.5905,0,0,0-.0339-.5227l-.4156-.7189a.59.59,0,0,0-.3312-.2668l-.3832-.1226a.59.59,0,0,0-.5632.1131l-.7237.6173a.59.59,0,0,1-.5972.101l-.5751-.2236a.5872.5872,0,0,0-.6795.1908l-.3944.516a.5813.5813,0,0,1-.6646.1918l-.01-.0037a.5934.5934,0,0,1-.388-.55l-.002-.16a.59.59,0,0,0-.5895-.5823H881.75a.5907.5907,0,0,1-.5782-.47l-.0073-.0353a.59.59,0,0,1,.2283-.5962l1.23-.9042a.3242.3242,0,0,1,.3279-.033l.8747.4049a.3248.3248,0,0,0,.1194.03l.8728.0444a.3246.3246,0,0,0,.244-.0929l1.2171-1.2015a.3242.3242,0,0,1,.2114-.0929l.4627-.0232a.3234.3234,0,0,1,.2464.0958l1.2567,1.2714a.3236.3236,0,0,0,.4189.0355l.4807-.3448a.3238.3238,0,0,0,.1351-.2631v-.8184a.3237.3237,0,0,0-.3307-.3236l-.4085.0087a.3239.3239,0,0,1-.2119-.0731l-1.0275-.8408a.3236.3236,0,0,0-.1965-.073l-1.1474-.0306a.3224.3224,0,0,0-.2018.0638l-1.1333.8422a.3236.3236,0,0,1-.2828.0512l-.4889-.1413a.3236.3236,0,0,1-.2243-.2324l-.0795-.3179a.3236.3236,0,0,0-.3834-.2377l-.2622.0575a.3233.3233,0,0,0-.2377.2139l-.2768.83a.3239.3239,0,0,1-.1062.1515l-.1323.1048a.3239.3239,0,0,1-.4342-.0293l-.0714-.0741a.3237.3237,0,0,1-.0167-.43l.7088-.8615a.3164.3164,0,0,0-.0479-.4491l-.0054-.0042a.3235.3235,0,0,0-.3749-.021l-.7971.5037a.32.32,0,0,1-.109.0434l-.8521.17a.3335.3335,0,0,1-.1834-.0151l-.3224-.1223a.3328.3328,0,0,0-.2357,0l-.3753.1418a.3328.3328,0,0,0-.1868.4459l.1279.2894a.3322.3322,0,0,0,.2665.1957l.4045.0452a.3281.3281,0,0,1,.24.5024l-.0041.0065a.3325.3325,0,0,1-.2822.1558c-.2833,0-.8184,0-1.0361,0a.3322.3322,0,0,1-.1773-.0514l-1.16-.7326-.2066.0117a1.3284,1.3284,0,0,0-.7611.2962,18.4155,18.4155,0,0,0-5.7411,8.0619,1.306,1.306,0,0,0-.0738.5054l.0295.6088,1.779,1.1863a.9607.9607,0,0,1,.3533.4292l.1175.2821a.9569.9569,0,0,1,.0269.6635l-.1328.4092a.93.93,0,0,0,.0707.7375l.0061.0109a.9611.9611,0,0,0,.8432.4977c.5179-.0008,1.2037-.0008,1.2037-.0008l2.3623.8575a.36.36,0,0,1,.1687.1271l1.0263,1.415a.6067.6067,0,0,0,.3.22l1.0114.3372a.607.607,0,0,1,.2864.2019h0a.6078.6078,0,0,1,.0851.6014l-.2368.5877a1.1742,1.1742,0,0,1-.5467.6027h0a1.1736,1.1736,0,0,0-.6065.7994l-.0728.3455a1.1739,1.1739,0,0,0,.1887.9175l1.0944,1.5553,1.2628.7363a1.3235,1.3235,0,0,1,.6339,1.3859l-.003.0162a1.3439,1.3439,0,0,0,.1289.8718c.11.2107.2434.4668.3515.6748a1.3348,1.3348,0,0,1,.1343.8212l-.1615,1.0359a1.3361,1.3361,0,0,0,.2171.96l.6878,1.0062.3562,1.9757.2441.2464a1.0453,1.0453,0,0,0,.56.2962q.2072.0365.416.0685a1.0434,1.0434,0,0,0,.6764-.13l.1973-.1136-.083-1.1132A.5424.5424,0,0,0,885.5465,468.7194Z" transform="translate(-212 -325.0221)"/><path class="cls-5" d="M899.0674,440.4533h.2035a.2878.2878,0,0,1,.2875.2758l.0044.106a.2877.2877,0,0,0,.2875.2758h.7282a.288.288,0,0,1,.2549.1542h0a.2878.2878,0,0,1-.2549.4213h-.6006a.2872.2872,0,0,0-.1814.0644l-1.6745,1.3605-.7109.7838a1.2018,1.2018,0,0,1-.89.3945h-1.3447a.5654.5654,0,0,0-.4808.2678h0a.5654.5654,0,0,0,.0091.61l.6032.913a.5656.5656,0,0,0,.5863.2421l.1293-.0268a.5658.5658,0,0,0,.406-.3329l.2027-.4779a.5657.5657,0,0,1,.2033-.2471l1.1686-.7923a.6966.6966,0,0,1,.6564-.0676l.2858.1176a.6962.6962,0,0,0,.5868-.026h0a.697.697,0,0,1,.7509.0693l1.0441.8163a.2131.2131,0,0,1,.0751.221l-.1736.6753a.2131.2131,0,0,0,.0906.232l.1923.1245a.2132.2132,0,0,0,.2665-.0282l.6061-.606a.2132.2132,0,0,0,.0507-.22l-.222-.6437a.2159.2159,0,0,0-.0231-.0473l-.2476-.378a.2131.2131,0,0,1,.2084-.3277h0a.2128.2128,0,0,1,.159.1129l.3206.6182a.2179.2179,0,0,0,.0309.0446l.9068,1.0048a.2131.2131,0,0,0,.2162.0623l.3684-.1041a.213.213,0,0,0,.1547-.2182l-.0367-.5949a.2136.2136,0,0,0-.0179-.0742,18.4117,18.4117,0,0,0-3.94-5.7176.2886.2886,0,0,0-.2856-.07l-1.043.3139a.2876.2876,0,0,0-.2048.2755v.156A.2879.2879,0,0,0,899.0674,440.4533Z" transform="translate(-212 -325.0221)"/><path class="cls-5" d="M904.8843,448.2142h0a.5.5,0,0,1-.3341-.1426l-.6285-.6158a.4994.4994,0,0,0-.35-.1428h-.2211a.4994.4994,0,0,0-.4171.2246l-.2054.3116a.5.5,0,0,1-.4932.2188l-1.3816-.2125a.5.5,0,0,1-.3238-.194l-.0624-.0833a.59.59,0,0,1-.0757-.5731l.004-.01a.59.59,0,0,0-.2839-.7468h0a.59.59,0,0,0-.6075.0482l-.66.4729a.5893.5893,0,0,1-.3277.11l-2.09.0565a.59.59,0,0,0-.5515.4286l-.2357.83a.5426.5426,0,0,1-.2835.3391l-.3873.19a.5429.5429,0,0,0-.2976.4036h0a.5424.5424,0,0,1-.3346.42l-.5076.2031a.5427.5427,0,0,0-.3378.4434l-.2173,1.9417a.5428.5428,0,0,0,.0751.3414l1.3422,2.216a.5425.5425,0,0,0,.3881.2561l1.1343.16a.5416.5416,0,0,0,.3125-.049l1.1691-.5668a.9338.9338,0,0,1,.9389.0724l.2908.2013a.933.933,0,0,0,.4668.1638l.0694.0048a.9338.9338,0,0,1,.8611,1.0528l-.0232.1775a.9336.9336,0,0,0,.1746.6758l1.3861,1.878a.2618.2618,0,0,1,.03.2591l-.9012,2.092a.2621.2621,0,0,0,.0364.2676l.5723.7118a.2623.2623,0,0,1,.052.2188l-.2491,1.1676a.261.261,0,0,0,.015.1568h0a.2624.2624,0,0,0,.4491.0577,18.4166,18.4166,0,0,0,3.4947-15.0354A.5016.5016,0,0,0,904.8843,448.2142Z" transform="translate(-212 -325.0221)"/><path class="cls-5" d="M246.2161,546.6033a60.996,60.996,0,0,1,2.0612-13.2948q2.058-8.5509,5.5652-13.2948,8.86-12.57,16.2836-23.0855,7.42-10.5122,13.1917-18.1387a149.2068,149.2068,0,0,1,11.5428-13.604q35.2476-38.1316,50.5-56.9936,15.2514-18.86,15.253-26.28a8.6464,8.6464,0,0,0-4.5347-7.73q-4.5361-2.7826-11.955-2.7826-15.2569,0-38.3391,10.8213-23.0871,10.8215-53.9006,28.1368-30.8166,17.3142-34.3191,17.3141-5.5653,0-5.5653-8.0387,0-6.8019,4.3285-19.3766,3.3-13.6039,5.3592-21.1274a36.6154,36.6154,0,0,1,6.905-13.5009q4.8408-5.9749,16.0775-12.9856,11.232-7.005,34.5252-19.1692l2.0612,7.6264a259.7648,259.7648,0,0,1,36.5871-11.955q17.2071-4.12,29.3722-4.1224,23.9085,0,33.9069,8.1418,9.9952,8.1448,9.9969,35.35,0,14.8407-4.3286,24.7345T369.8892,420.87q-28.6523,41.637-43.0792,57.7138-41.8467,47.8206-41.8432,55.8588,0,4.5353,5.9775,4.5346,4.9469,0,14.0162-7.0081a216.3671,216.3671,0,0,0,21.8495-20.2q12.7779-13.1887,35.4527-37.72,24.1162-25.9712,40.7089-45.8619,16.59-19.89,27.311-34.0111,10.7153-14.1144,11.3367-15.15a129.546,129.546,0,0,1,22.9831-22.3641q11.8494-8.7577,15.1486-8.76,2.4735,0,5.7727,4.5347a46.4983,46.4983,0,0,1,5.6683,10.7183q2.3653,6.1836,2.37,9.4815,0,1.0338-4.9469,9.9969-4.947,8.9663-10.72,18.5509t-18.5508,29.3734q-28.033,43.4922-42.8726,73.07t-14.8407,38.8538a9.1755,9.1755,0,0,0,2.37,6.0805q2.3673,2.7826,4.8439,2.7827,3.2948,0,11.955-5.2561a119.33,119.33,0,0,0,19.1692-15.15,274.89,274.89,0,0,0,25.1461-27.4141,364.9054,364.9054,0,0,0,22.4685-31.7426q11.13-17.5172,19.7876-33.1854,8.6571-15.6621,17.52-32.9794l-3.504-10.5134a20.5938,20.5938,0,0,1-.8245-6.39q0-3.092,12.1611-20.0968t16.0775-17.005q4.3285,0,7.3173,6.2867a29.316,29.316,0,0,1,2.9887,12.6764q0,7.0105-6.2867,27.9294-6.29,20.9238-19.5815,50.6039a470.3807,470.3807,0,0,1-32.8762,60.3934Q483.46,536.298,464.19,555.3634q-19.2772,19.0668-34.7319,28.3417-15.4591,9.2754-22.8795,9.2754-8.454,0-17.7264-7.42-7.628-6.599-10.8213-11.8519a31.8581,31.8581,0,0,1-4.2255-11.44,88.55,88.55,0,0,1-1.0306-14.4285q0-17.5172,9.6877-41.018,9.6861-23.4978,28.8569-58.5384-59.9811,72.9669-92.8574,106.1523-32.88,33.1886-48.13,33.1855-10.1015,0-17.108-12.0581Q246.2145,563.5052,246.2161,546.6033Z" transform="translate(-212 -325.0221)"/><path class="cls-5" d="M459.6821,590.21c10.1207.4877,19.0224-9.2671,24.2652-17.3152.61-.9754,1.5859-.9754,2.0731.1223.4882.9753.1223,4.39-2.0731,7.56-5.1215,7.4381-14.51,13.0473-23.8993,13.1691-15.4868.2441-20.8519-14.9981-12.9255-30.7279s20.3637-22.0709,26.4605-18.5347a22.6915,22.6915,0,0,1,7.1946,6.3409c2.1943,2.9262,1.2189,10.3643-3.9025,16.5835-5.9746,7.3163-14.1445,10.4866-22.68,3.5361C450.2922,582.1628,453.2194,589.845,459.6821,590.21Zm10.1207-28.0454c3.9015-5.1215,6.5851-11.4625,4.8779-12.8037-2.5612-2.0731-12.6819,5.2433-18.4129,16.8275-.3659.7318-.7318,1.4631-.9754,2.0731C461.267,572.0416,466.2662,566.7983,469.8028,562.165Z" transform="translate(-212 -325.0221)"/><path class="cls-5" d="M493.2139,589.9668c5.8533.4877,14.3891-8.2917,19.1447-17.6811.8531-1.5854,2.1943-1.7072,2.6825,0,.61,1.9512.1213,4.6338-1.22,7.56-1.7071,3.6584-10.6088,13.7791-20.3636,13.5355-8.4135-.2441-12.9256-6.0968-10.1207-19.2665,4.512-21.2172,18.4129-43.288,30.85-56.2131,1.8295-1.9512,3.5367-2.1953,5.2438-.61,3.5356,3.17,4.2674,7.6823,2.8039,13.4133-3.7792,14.9985-17.4366,29.6307-28.289,36.7035C489.0678,579.3579,487.7265,589.4791,493.2139,589.9668ZM518.09,528.144c-1.5859-.9754-10.6089,12.56-19.0224,28.1677q-1.6466,2.927-2.9272,5.8533C512.8458,548.63,519.6744,529.1194,518.09,528.144Z" transform="translate(-212 -325.0221)"/><path class="cls-5" d="M521.2583,589.9668c5.8532.4877,14.3891-8.2917,19.1447-17.6811.853-1.5854,2.1943-1.7072,2.6825,0,.61,1.9512.1213,4.6338-1.22,7.56-1.7072,3.6584-10.6089,13.7791-20.3637,13.5355-8.4135-.2441-12.9255-6.0968-10.1206-19.2665,4.512-21.2172,18.4129-43.288,30.85-56.2131,1.8295-1.9512,3.5366-2.1953,5.2438-.61,3.5356,3.17,4.2674,7.6823,2.8038,13.4133-3.7792,14.9985-17.4365,29.6307-28.289,36.7035C517.1121,579.3579,515.7709,589.4791,521.2583,589.9668Zm24.8756-61.8228c-1.5858-.9754-10.6088,12.56-19.0224,28.1677q-1.6464,2.927-2.9271,5.8533C540.89,548.63,547.7188,529.1194,546.1339,528.144Z" transform="translate(-212 -325.0221)"/><path class="cls-5" d="M575.3983,543.9962c4.0238.6095,7.804,6.5845,4.7556,12.9255-2.56,5.3651-8.5358,14.3886-11.3407,20.7291-3.17,7.0727-2.4379,12.8037,1.9518,12.56,4.9992-.2436,10.9738-8.2917,15.6081-16.827.61-1.0977,1.4625-1.0977,2.073-.1223.8531,1.3412.61,4.1461-1.0976,7.6822-3.2921,6.8287-10.9748,13.0473-18.0471,13.0473-10.3642,0-12.8032-7.56-9.2676-18.1688,4.0238-11.95,14.755-24.8752,12.56-25.8505-1.219-.4882-8.2913,2.9261-16.0953,11.4619-7.1945,7.804-12.56,19.51-17.8034,30.9721-.4872,1.0976-1.219,1.5853-2.3167.4882-2.4389-2.439-3.1707-6.4628-1.2189-12.56,2.4379-7.6822,11.8278-24.6316,19.5095-35.9717.8541-1.3413,1.83-1.22,2.5613,0,1.8284,3.0484,1.7072,7.194.3659,11.5837C563.0823,550.0931,571.3745,543.3862,575.3983,543.9962Z" transform="translate(-212 -325.0221)"/><path class="cls-5" d="M601.6132,590.21c10.1207.4877,19.0224-9.2671,24.2652-17.3152.6095-.9754,1.5859-.9754,2.073.1223.4882.9753.1223,4.39-2.073,7.56-5.1215,7.4381-14.51,13.0473-23.8993,13.1691-15.4868.2441-20.8519-14.9981-12.9255-30.7279s20.3636-22.0709,26.4605-18.5347a22.6925,22.6925,0,0,1,7.1946,6.3409c2.1943,2.9262,1.2189,10.3643-3.9026,16.5835-5.9745,7.3163-14.1445,10.4866-22.68,3.5361C592.2233,582.1628,595.15,589.845,601.6132,590.21Zm10.1207-28.0454c3.9015-5.1215,6.5851-11.4625,4.8779-12.8037-2.5613-2.0731-12.682,5.2433-18.4129,16.8275-.3659.7318-.7318,1.4631-.9754,2.0731C603.1981,572.0416,608.1972,566.7983,611.7339,562.165Z" transform="translate(-212 -325.0221)"/><path class="cls-5" d="M642.097,550.8248c.6094-4.7556,1.8284-7.0727,4.39-9.3894,2.6825-2.4389,5.4873-2.9266,6.584-1.8289,1.22,1.2189.6105,2.5607-.9754,5.3651-.4871.7317-.853,1.463-1.3412,2.3166-.8531,11.2184,1.4635,20.73,1.0976,29.1436-.2435,4.7556-1.0976,9.8766-5.4873,12.8032,8.17-3.0484,13.2914-10.3648,16.34-16.9493.61-1.3413,1.8295-.9754,2.3167,0,.4882,1.0977.3659,4.2679-1.7072,8.0481a25.6905,25.6905,0,0,1-21.5826,13.4127c-7.0723.2441-13.9009-1.5848-18.0471-9.1453-2.9261-5.4869-2.5612-13.535,1.5849-16.9493,1.4636-1.219,2.4389-.7313,2.5613,1.22.1212.9753.1212,1.9512.2435,2.9266A241.8047,241.8047,0,0,0,642.097,550.8248Zm-12.9256,27.5578c1.8285,7.0722,5.3651,12.0719,9.3889,10.8524,5.61-1.7071,3.78-20.8513,3.292-30.6061A214.2191,214.2191,0,0,1,629.1714,578.3826Z" transform="translate(-212 -325.0221)"/><path class="cls-5" d="M678.92,550.8248c.6095-4.7556,1.8285-7.0727,4.39-9.3894,2.6826-2.4389,5.4874-2.9266,6.5841-1.8289,1.22,1.2189.6105,2.5607-.9754,5.3651-.4872.7317-.8531,1.463-1.3413,2.3166-.8531,11.2184,1.4636,20.73,1.0977,29.1436-.2436,4.7556-1.0977,9.8766-5.4874,12.8032,8.17-3.0484,13.2914-10.3648,16.34-16.9493.6094-1.3413,1.8294-.9754,2.3166,0,.4882,1.0977.3659,4.2679-1.7072,8.0481a25.69,25.69,0,0,1-21.5826,13.4127c-7.0722.2441-13.9009-1.5848-18.047-9.1453-2.9261-5.4869-2.5613-13.535,1.5848-16.9493,1.4636-1.219,2.439-.7313,2.5613,1.22.1213.9753.1213,1.9512.2436,2.9266A241.78,241.78,0,0,0,678.92,550.8248Zm-12.9255,27.5578c1.8284,7.0722,5.3651,12.0719,9.3889,10.8524,5.61-1.7071,3.78-20.8513,3.292-30.6061A214.2191,214.2191,0,0,1,665.9942,578.3826Z" transform="translate(-212 -325.0221)"/><path class="cls-5" d="M728.667,592.1617c-.4882,1.2194-1.0977,1.3412-1.9518.4877-1.7072-1.829-2.9261-5.4874-1.0967-12.072,3.0485-11.0961,14.51-34.2646,25.2406-51.0921-4.1461-.3659-6.3405-2.1949-7.8041-4.8774-.6094-1.2195-.2435-1.829,1.3413-2.0731,10.243-1.2194,19.3883-6.2186,27.5582-6.5845,6.2192-.2441,11.5843,1.5853,14.51,9.8771,2.5613,7.3163.8541,14.7545-3.78,20.9731-6.584,8.7794-19.7532,16.4617-33.2882,19.6324,4.6333,5.731,9.023,11.5838,11.5833,16.7053,1.7071,3.2925,2.1953,7.4381.6105,9.877-.6105.9754-1.22,1.3413-1.9518.2436a318.3785,318.3785,0,0,0-20.1191-25.241C736.2264,574.4805,732.6908,582.1628,728.667,592.1617Zm24.9969-49.6291c-3.292,5.8533-6.34,10.9748-9.6335,16.9493,26.9488-5.9745,40.7274-23.7774,37.1918-32.4351-2.6826-6.8286-14.8763-.4876-22.925,1.7072C758.2972,532.1678,756.9559,536.4357,753.6639,542.5326Z" transform="translate(-212 -325.0221)"/><path class="cls-5" d="M854.8728,593.8688c-7.9263,0-10.9748-4.8774-9.9994-11.95-4.2674,5.6092-10.4866,12.0719-17.4365,11.4624-8.6582-.7317-8.9017-9.6335-6.2192-17.6811a61.6433,61.6433,0,0,1,4.6333-10.4866,21.4089,21.4089,0,0,1-10.9738,2.1949c-2.8048,10.2425-10.2429,22.3144-18.9011,25.2411-4.511,1.463-10.73.9753-15.4857-5.3651-5.3651-7.1946-3.5367-17.6812,1.8284-27.4365,4.6343-8.4135,12.1948-15.2421,19.5106-15.73,3.6579-.2441,5.731.8536,8.2922,4.1461,2.9262,3.6579,6.3405,4.39,5.731,13.4132a20.4634,20.4634,0,0,1-.2446,2.4385c6.951-.1218,13.6573-5.8528,17.8034-12.56,1.219-1.9507,3.1708-4.6338,4.6333-6.7063.9754-1.3413,2.0731-1.2195,3.0485-.1223,2.6825,4.0243,2.073,9.1458-2.3167,16.34s-7.1945,12.072-9.5112,17.8029c-2.4389,5.9751-2.073,10.243.61,10.4866,4.7556.3659,11.5843-7.9258,18.047-18.5342,7.5605-12.316,11.0961-20.7295,14.8763-25.9728,1.0977-1.5854,2.0731-1.829,3.0484-.7318,1.83,2.1948,2.8049,7.4381-.1212,13.535-2.6826,5.4874-8.6582,14.3886-11.463,20.73-3.17,7.0722-2.6826,12.0719,1.7072,11.8278,5-.2436,11.3406-8.2917,15.9739-16.827.6105-1.0977,1.5859-1.22,2.1954-.1223s.61,4.2679-1.0977,7.56C869.5055,587.772,862.0663,593.8688,854.8728,593.8688Zm-55.7259-40.7273a44.37,44.37,0,0,0-9.5112,11.5842c-5.1215,9.1454-6.8287,20.2414-3.6579,23.0463s10.73-1.5854,16.827-12.682a65.3672,65.3672,0,0,0,4.2684-9.8766C802.9271,562.8963,799.1469,558.1407,799.1469,553.1415Zm5.9745.2436a9.4672,9.4672,0,0,0,2.8049,8.2922,23.3351,23.3351,0,0,0,.853-8.6576C808.2922,549.1177,805.4873,549.9713,805.1214,553.3851Z" transform="translate(-212 -325.0221)"/><path class="cls-5" d="M877.3075,541.1913c-1.219-1.7071-.4872-2.5607,1.3412-2.4384a69.5941,69.5941,0,0,0,10.1218-.4877,156.6893,156.6893,0,0,1,9.2665-15.12c1.0977-1.5853,2.3177-1.4636,2.9272,0,1.3413,3.4144,1.3413,7.4382-1.5859,13.7786,4.7556-.1218,6.5851,2.0731,7.5605,3.6585.8541,1.463.3658,2.3166-1.4636,2.3166a36.3813,36.3813,0,0,0-9.5112.4877c-4.7556,8.17-11.7056,19.9978-16.3389,30.2408-4.0248,8.9017-2.6825,16.4616,2.438,16.7057,5.4874.2436,12.4383-8.414,16.9493-17.5593.7318-1.4631,2.0731-1.7072,2.5613,0,.61,1.9512,0,4.1461-1.219,6.95-1.5859,3.5361-9.6335,14.2668-19.3883,13.9009-8.0486-.2436-14.5114-9.2671-8.6581-23.29,2.5612-6.0969,7.6827-16.3393,12.9255-25.9723C881.0877,544.3621,878.2839,542.5326,877.3075,541.1913Z" transform="translate(-212 -325.0221)"/><path class="cls-5" d="M910.3531,590.21c10.1207.4877,19.0224-9.2671,24.2652-17.3152.6094-.9754,1.5858-.9754,2.073.1223.4882.9753.1223,4.39-2.073,7.56-5.1215,7.4381-14.51,13.0473-23.8993,13.1691-15.4868.2441-20.8519-14.9981-12.9256-30.7279s20.3637-22.0709,26.4606-18.5347a22.6911,22.6911,0,0,1,7.1945,6.3409c2.1944,2.9262,1.219,10.3643-3.9025,16.5835-5.9746,7.3163-14.1445,10.4866-22.68,3.5361C900.9632,582.1628,903.89,589.845,910.3531,590.21Zm10.1207-28.0454c3.9015-5.1215,6.585-11.4625,4.8779-12.8037-2.5613-2.0731-12.682,5.2433-18.4129,16.8275-.3659.7318-.7318,1.4631-.9754,2.0731C911.9379,572.0416,916.9371,566.7983,920.4738,562.165Z" transform="translate(-212 -325.0221)"/><path class="cls-5" d="M882.5276,514.1924c.3082.1951.1673.0363-.6824-.5017l-.6434-.3243Z" transform="translate(-212 -325.0221)"/><path class="cls-5" d="M876.9583,510.3491c-1.0135-.6119-2.2237-1.2486-1.6437-.7343,1.05.5291,1.2627.7227,2.3891,1.3032a5.9393,5.9393,0,0,1,1.2875.9293c.3116.1742,1.3.8672,1.7838,1.1186-1.0593-.77-2.4325-1.7039-3.9216-2.591C876.5572,510.1484,876.8754,510.32,876.9583,510.3491Z" transform="translate(-212 -325.0221)"/><path class="cls-5" d="M783.9365,493.6937l.6153-.1994A3.8913,3.8913,0,0,0,783.9365,493.6937Z" transform="translate(-212 -325.0221)"/><path class="cls-5" d="M740.9605,536.585c.2468-.3946.2977-.5946.2581-.6495C741.0147,536.319,740.8517,536.6368,740.9605,536.585Z" transform="translate(-212 -325.0221)"/><path class="cls-5" d="M734.544,544.8367l.3772-.4864A1.1371,1.1371,0,0,0,734.544,544.8367Z" transform="translate(-212 -325.0221)"/><path class="cls-5" d="M783.9365,493.6937c-.5221.1817-1.0725.3114-1.576.5368-.0053.1165.1905.0347.4918-.0919Z" transform="translate(-212 -325.0221)"/><path class="cls-5" d="M865.0807,503.8312c.3054.15.5652.2648.806.3644l-.7428-.3683A.2611.2611,0,0,1,865.0807,503.8312Z" transform="translate(-212 -325.0221)"/><path class="cls-5" d="M810.1616,487.0287l.502-.0112a2.815,2.815,0,0,0,.4107-.2076Z" transform="translate(-212 -325.0221)"/><path class="cls-5" d="M830.8905,488.9561c-.4583-.1117-.688.1971-.894.3115a2.4871,2.4871,0,0,1,1.0507-.0283C831.0683,489.1763,831.0244,489.0869,830.8905,488.9561Z" transform="translate(-212 -325.0221)"/><path class="cls-5" d="M861.3768,500.9676c.1764.08.3581.1505.53.2391C861.7733,501.1366,861.5377,501.0379,861.3768,500.9676Z" transform="translate(-212 -325.0221)"/><path class="cls-5" d="M795.3224,489.05a.408.408,0,0,0-.2279-.1138C795.1092,488.9924,795.1966,489.0277,795.3224,489.05Z" transform="translate(-212 -325.0221)"/><path class="cls-5" d="M303.4161,629.35c.0218-.004.0068-.0245.0179-.0327C303.3211,629.2715,303.2821,629.2646,303.4161,629.35Z" transform="translate(-212 -325.0221)"/><path class="cls-5" d="M283.796,615.6246l.2768.182c.0357.01.072.0214.0782.0123Z" transform="translate(-212 -325.0221)"/><path class="cls-5" d="M723.4146,560.2617l.0568-.063C723.6945,559.7482,723.5459,559.9882,723.4146,560.2617Z" transform="translate(-212 -325.0221)"/><path class="cls-5" d="M590.23,666.6976c1.9167-.517-2.906,1.4041-.049.55C589.8925,667.2654,592.5719,665.9335,590.23,666.6976Z" transform="translate(-212 -325.0221)"/><path class="cls-5" d="M864.6214,503.5615l-.7454-.3925C864.2122,503.3537,864.4412,503.4741,864.6214,503.5615Z" transform="translate(-212 -325.0221)"/><path class="cls-5" d="M590.1807,667.2476l.0006.0016.2947-.0894Z" transform="translate(-212 -325.0221)"/><path class="cls-5" d="M697.4513,595.1525a1.2682,1.2682,0,0,0,.4814-.1645C697.88,594.9608,697.7592,594.9879,697.4513,595.1525Z" transform="translate(-212 -325.0221)"/><path class="cls-5" d="M718.095,570.1221l-.5277.6129A5.6736,5.6736,0,0,0,718.095,570.1221Z" transform="translate(-212 -325.0221)"/><path class="cls-5" d="M686.4124,607.8735a3.9168,3.9168,0,0,0-.8857.783.9387.9387,0,0,0,.1766-.0776A1.9729,1.9729,0,0,1,686.4124,607.8735Z" transform="translate(-212 -325.0221)"/><path class="cls-5" d="M673.3533,619.5753c.097-.0282.211-.0829.3166-.1243l.4151-.3708Z" transform="translate(-212 -325.0221)"/><path class="cls-5" d="M350.8434,654.8026a2.9057,2.9057,0,0,1-.5968-.6737C350.3759,654.5121,347.96,653.53,350.8434,654.8026Z" transform="translate(-212 -325.0221)"/><path class="cls-5" d="M865.1213,503.739a1.5241,1.5241,0,0,1-.5-.1775l.5225.2658C865.2019,503.8279,865.2239,503.8114,865.1213,503.739Z" transform="translate(-212 -325.0221)"/><path class="cls-5" d="M688.8214,611.4152l-2.1342,1.8774C687.3039,612.79,688.0786,612.106,688.8214,611.4152Z" transform="translate(-212 -325.0221)"/><path class="cls-5" d="M473.6257,685.7947l-.65.0174A2.5721,2.5721,0,0,0,473.6257,685.7947Z" transform="translate(-212 -325.0221)"/><path class="cls-5" d="M680.4293,618.9386a7.36,7.36,0,0,0-1.4451.77,1.3147,1.3147,0,0,0-.1633.3165Z" transform="translate(-212 -325.0221)"/><path class="cls-5" d="M350.2427,654.1226c.005.0037.0039.0063.0039.0063S350.2477,654.1263,350.2427,654.1226Z" transform="translate(-212 -325.0221)"/><path class="cls-5" d="M333.1688,646.82c2.3748,1.2593,1.3276.1606,1.9537.1783,2.928,1.3,1.1706.98,2.0367,1.6939,1.8455.7846,3.4167,1.0526,4.7453,1.73.0643.1247.3139.2757-.0385.2261,2.0855.53,5.6854,2.6693,8.1376,3.22a.8045.8045,0,0,1,.2391.2536c-.2542-.41-.1966-.6892-.0425-.8348,1.1033.4746,2.1813.5738,2.45,1.0851a2.1831,2.1831,0,0,0-1.1453-.2323l1.2153.3625c.83.9317-1.6454-.5265-1.7991-.1788a64.2623,64.2623,0,0,1,6.7716,2.48c.1562.6422-4.0972-1.6115-1.98-.1733l-2.5878-1.3584c1.7154,1.6422-1.5971-.77-.0694.8508,3.4542,1.6924,4.0113,1.5451,7.493,3.1475.9089.0574-.0958-.5151.8129-.46,5.2322,1.5516,3.4289,2.96,7.432,3.7256a5.8573,5.8573,0,0,1,4.2481.8871l-1.13.2462c3.4535,1.385,2.2825-.0534,5.7968,1.6621-.74.0133-2.8193-.7926-2.3165-.53,2.1934,1.3488,1.8027.2638,3.6252.9172l.1844.6795c1.8793.625,3.8792,1.2078,5.93,1.7986,2.0682.5407,4.1862,1.0923,6.2844,1.7212-.2841.0939-1.0552.0369-.1359.5306,2.664.75,5.487,1.6049,8.2678,2.5287,2.7772.9347,5.509,1.9495,8.0532,2.7816l2.1083.0125c.4566.1269.79.4559.2675.4237,1.9621.7261.189-.2968,1.208-.2426,1.1524.2662,1.4359.6938.6707.6559.9162.124,2.0186.3026,3.2189.5,1.2063.1731,2.5057.3828,3.8035.623a45.4748,45.4748,0,0,1,7.0125,1.775l-.7709-.0015c2.9121.8,3.5507-.387,6.19.6249l-.5427-.0128c1.5908.3677,3.2337.6966,4.8756,1.0135,1.6443.3048,3.3017.5218,4.9007.789,1.6009.2569,3.1513.5206,4.6026.8139.7257.1462,1.4269.2986,2.0974.4607.6738.1405,1.3172.2886,1.9239.4507,1.0321-.55,6.3884,1.0468,6.9166.1948a41.3065,41.3065,0,0,0,7.7859,1.5987c1.3975.1426,2.1344-.3568,3.8676-.2975l.0072.4245,2.3812-.2539,1.2163.54,1.6338-.0393c-.6466-.0486-1.3643-.2361-1.2575-.3484a22.3373,22.3373,0,0,1,6.2238.724c2.0086-.0294,4.0133-.034,6.0205-.1588a8.6,8.6,0,0,1-1.9459.28c3.2222-.36.5722.3678,3.5245.0374-.3923-.0777.2182-.2038.2864-.2721a57.2686,57.2686,0,0,0,7.2646.1289l-.4737.214c2.2292.006,4.5781-.1689,6.9929-.2768,2.4138-.1526,4.8984-.19,7.3907-.4022-1.7924.058-1.3939-.2883.0647-.4217l.5972.2244c.9349-.2346-1.53.0115.3952-.3321,1.8613-.1029,1.2675.2039.2026.374l2.2582-.263c.1374.0665-.3908.1471-.5234.2564.9186-.2259,3.925-.0573,5.2463-.4235l.133.0621c2.4944-.1539,4.2916-.443,5.9789-.65l5.2774-.66a16.5636,16.5636,0,0,1,2.8275-.6114c2.9632-.36,6.2558-.7691,9.8136-1.3226,2.4862-.47.7066-.2554,1.8134-.5279.2166.1658,3.7439-.53,1.932-.07,4.2328-.87,5.4086-1.1079,10.7416-2.2879-.5951.0524-1.2547.1545-.927.0359a7.275,7.275,0,0,1,2.1024-.2722l-.2531.0664c5.8908-1.6947,13.8942-2.8022,18.487-4.5614l-.2588.0912c1.6159-.4958,3.1979-1.0975,4.7932-1.6523,2.2354-.6634-1.2938.5454.3883.14,2.5745-.9285,4.6117-1.639,6.5537-2.2643a59.8563,59.8563,0,0,0,5.8377-2.1128,44.6283,44.6283,0,0,0,7.66-2.6085c3.0042-1.2341,6.1183-2.5951,8.3778-3.3112l-.3228-.0562a7.7865,7.7865,0,0,1,2.2362-.8048c-.1764-.08-1.2805.3734-.6275-.0173l14.4033-6.5634c4.8759-2.2209,9.7649-4.5128,14.4841-6.91,3.4437-1.77,1.2706-2.2068,5.8317-4.031l-.9575,1.1039c1.6279-1.0762,3.3082-2.1029,5.0075-3.1024q2.5637-1.5237,5.1371-3.0529l2.5718-1.5176,1.2766-.7629,1.2323-.8223c1.6331-1.1035,3.231-2.2275,4.75-3.4034-.3078.36-.2228.5065-.8507.917a13.1952,13.1952,0,0,0,3.0814-1.8978c1.0055-.8337,1.7894-1.63,1.7-1.7765.9908-.67.4059.0878,1.1063-.2034,1.4733-.7537,2.9886-2.8306,3.9441-3.0018.1616-.0313-.2863.379-.5083.58.7658-.7468,3.9332-3.0061,2.84-2.7493a33.8774,33.8774,0,0,0,3.2434-2.5521c.4963-.4246.979-.8365,1.4624-1.2173a14.45,14.45,0,0,1,1.4215-1.0849c.7614-1.4112,3.9251-3.0144,3.7432-3.9353.4431.8086,4.2091-2.8914,5.2525-4.4361-.2675.6047,1.3468-.8861,1.0737-.1383,1.54-1.4086,2.7491-2.9008,2.181-2.9566a14.9836,14.9836,0,0,0,4.02-3.8408c1.0941-1.33,1.9732-2.5624,3.224-2.877l2.8546-3.5613q1.3611-1.7795,2.681-3.5047c1.7926-2.2743,3.46-4.5414,5.12-6.76.5907.7345-3.7919,4.8113-2.9369,5.2178,3.0962-4.2924,4.3975-7.1248,7.7372-11.1227.9288-.9888-.143.8539-.2963,1.3126.7277-1.0983,1.4869-2.144,2.2479-3.1629l2.2228-3.0258a49.3741,49.3741,0,0,0,3.9933-5.9818c.0657.062-.1451.5294-.36.96.506-.769,1.3516-1.6651.9334-1.8311l-.4207.8c-1.3658.829,1.0241-3.7342.8255-4.066.1568,2,2.8522-3.6138,2.77-.6728.2729-.5462.5288-1.2893.2077-1.34.5761-.6916.8795-.8306.6425.1088,1.6584-2.8514.6185-2.143,2.2784-4.612.1718.1277-.0932.6728-.0559,1.0686a14.53,14.53,0,0,1,2.5277-4.9665c.0235.1968.3252.0462-.0935.6687,2.3238-3.6373,3.1135-6.7514,6.0365-10.4845.01,1.6739,1.1338-1.1787,1.9381-.95l1.1939-2.2506-.8823.6378c1.2357-1.846,1.8213-3.8188,3.1063-5.2562l-.6446,1.5536,2.1877-3.5416-1.56,1.7894c.9135-2.0945-.9664-.3577.8672-2.6923-.2659.5472,1.2406-1.8495,2.2929-2.53l-.0026.0074a10.3348,10.3348,0,0,1,1.9448-3.3646c.4464-.2072.51.7787.8032.646.0708-1.2771,2.8766-4.3137,3.122-5.8383-.1392.4665.1719.7263.326.6539l.1189-1.0431c.7582-.7145.9125-.7845,1.0673-.459,1.9462-2.39-1.3673.19,1.1912-2.4645-.1419.2541.0028.1928-.2993.7161.6036-.6952,1.1511-1.414,1.6882-2.1245.5521-.6974,1.0786-1.4,1.6009-2.095s1.04-1.3827,1.5736-2.0494a23.97,23.97,0,0,1,1.7363-1.8572c1.2164-.2418-1.8217,2.3108-.59,1.88,1.566-1.8329,3.0128-3.9055,4.6724-5.7583.8227-.9321,1.5946-1.9207,2.4833-2.7559.8759-.8494,1.763-1.6641,2.6618-2.4151l-.7016.5239c-.081-.586.6284-1.117,1.6039-1.6458a10.0305,10.0305,0,0,0,2.9441-2.0431c-.4132.4167-.2648.9064-.2095.7223,1.27-.967,2.6065-1.8817,4.0606-3.0117a58.66,58.66,0,0,1,5.2012-3.5959l-.4117.5094c.4411-.1722.9134-.445,1.457-.662l1.687-.7235c1.1554-.4893,2.2929-1.0739,3.2654-1.3692.481-.42,1.5948-.7752.8093-.8549a20.4565,20.4565,0,0,0,2.3123-.4517c.7458-.1853,1.4592-.4374,2.1955-.5939,1.4547-.368,2.8544-.8316,4.2417-1.2958a23.4293,23.4293,0,0,1,8.43-1.2243c-.6654.0615-1.5635.3249-1.0358.2779l2.3541-.31,1.18-.1542,1.1858-.0894c-.3908-.32-.6333-.2091-1.65-.3994a10.4566,10.4566,0,0,1,3.134-.4819c-2.1542.2909.0367.5488.9582.7013-.1562-.098.1607-.2228.0817-.325,2.493.6153.4248-.6714,3.8438-.1955l-.1885.1669a21.3457,21.3457,0,0,1,3.8529-.0045c.5383.41-1.3753.06-1.4844.3572a24.72,24.72,0,0,0,2.8756-.0818,7.6683,7.6683,0,0,1,2.7038.3364c-.8313-.005-2.002-.1976-2.8328-.1632a15.3745,15.3745,0,0,0,3.4654.8219l-.1366-.0274c1.0722.1945,2.14.4009,3.195.6832l-.7981-.26a10.6062,10.6062,0,0,1,3.8056.2419,37.66,37.66,0,0,0,4.36.8112c-3.212-.29-.5823.1566-.9086.438.7837.2954,1.9818.6985,1.6063.7075,1.5742.0851,2.4013.9138,4.6033,1.1449.0608.1281,1.5745.4864,1.1592.6321,1.94.5025-.3942-.3083-.1935-.3818a27.78,27.78,0,0,1,5.04,1.7823c1.8566.7077,3.7956,1.65,5.9374,2.3082l2.2564.8061,1.6662.6334c1.039.39,2.0451.7745,3.6789,1.51,1.0331.6308-1.0077-.1969-1.0077-.1969,1.717.9164,3.0111,1.5941,4.6561,2.4086-.3534-.1276-.04.0972.419.4227a21.2685,21.2685,0,0,1,2.64,1.269,13.8315,13.8315,0,0,1-1.4121-.4859l2.345,1.1261,2.3219,1.2664c.3648.3177-1-.4381-1.5766-.7041,1.7593.9837,4.5471,2.5768,5.1425,2.8014l-1.0888-.7016c.6339.3741.27.2818-.2087.0255a8.0371,8.0371,0,0,1-2.18-1.4051l1.1138.63a17.94,17.94,0,0,0-2.8536-1.823c-1.263-.6985-2.7376-1.34-3.8587-1.97l1.0695.2848-2.4256-1.072c-.4595-.3306-.7213-.6591.413-.08-1.557-1.0094-1.47-.72-2.8073-1.5895-.1452-.1008-.0675-.0785.0834-.0167l-1.6607-.721c.3468.0986-.17-.332.8037.2045-2.8281-1.61-4.779-2.1384-5.7937-2.8533l.2575.09c-4.1753-1.6968-.5063.0574-3.7293-.9812l-1.8164-1.5515c-.17.0266-.3455.0667-.5194.1045-.431-.1735-1.2828-.5187-1.0807-.57-1.6916-.4209.229.2242-.7793.0517a35.5989,35.5989,0,0,0-3.693-1.492c-1.2612-.4035-2.313-.7491-2.4729-1.081-.8411-.0017,1.9792.8312-.3488.2779-.4867-.7318-2.64-.801-4.5557-1.5214.6882-.1454,2.5244.5111.6135-.2791a6.4372,6.4372,0,0,1-2.6278-.5331l-1.5125-.5416a10.0671,10.0671,0,0,0-1.4141-.3317c-.176.45-3.7091-.6545-6.62-.8347a12.7708,12.7708,0,0,0-2.951-.596c-1.7167-.21-3.7945-.5237-5.1518-.6166l.0832-.0835c-.5454.5056-3.3286.2791-5.3573.4984.0691-.3274.4308-.4646,1.5366-.6313l-1.9229.0419a10.1055,10.1055,0,0,1-2.2767.43l.4548-.4494c-1.2774.1165-2.5583.3016-3.9185.54-1.3558.2833-2.8128.4477-4.453.63-.0954.4383,2.7313.6448-.5825,1.544-.166-.1943-.3657-.5448.5059-.797a6.43,6.43,0,0,1-1.6041.3867l1.2846-.6158c-1.497.1146-.7109.4267-1.8768.6469-.044-.3184-.904-.0078-.7942-.2981a13.5688,13.5688,0,0,0,1.4647-.3266,15.9769,15.9769,0,0,1-3.5454.3417c.1614.15.1086.4235-.8385.7049-2.4683.6636-.9717-.2124-2.4484.0921-.52.4208-2.1525.7257-2.0254,1.2125a1.9013,1.9013,0,0,1-1.2453.0337c-.2933.1664-.8147.3574-1.3828.61l-1.7186.84c-1.075.5385-1.8019.97-1.0044.9148l.3245-.1054-.1877.1087.01-.0044-.01.0044c-1.9026,1.0423-3.8341,2.1547-5.8647,3.1228a13.1432,13.1432,0,0,0-1.4786.7974l-1.4333.86a22.7958,22.7958,0,0,0-2.7063,1.8511l-.1032-.1523c-.9541.869-2.063,1.7663-3.0836,2.6257a15.49,15.49,0,0,0-2.4183,2.5269c-.5622.4995-1.5653.9278-1.4772.5472-.6954.6934-1.0261,1.1343-1.4581,1.6253a17.0944,17.0944,0,0,1-2.1094,1.8879c1.1573-1.6265-.6953.27,1.2577-1.5983-1.9085,1.69-2.6133,1.8417-4.038,4.2449.26-1.0279-1.7624.998-2.4676,1.9964l1.4733-1.0847c-.87,1.0488-1.6926,1.9077-2.4838,2.8189l-.09-.933a21.0041,21.0041,0,0,0-4.3534,5.6839,25.89,25.89,0,0,1-1.7379,2.6748,9.0828,9.0828,0,0,1-2.1658,2.1532c-.4212,1.3914,1.9386-2.075,1.6656-.7506-1.468,1.87-3.7687,3.2895-4.1862,3.91-2.1894,2.4594-.9267,3.0714-3.0678,5.7347.4514-.2208,1.2315-.1849.0075,2.0549-1.4026,1.9168-2.5119,1.8334-1.8376.4768.3022-.4844.5227-.6682.58-.6.3549-.6876.8316-1.5836.0775-.9555l.035.3962c-.8766.8334-2.6869,3.5636-2.599,2.6978-.7922,1.63-.0811.8683.7661-.1664-1.9907,2.3371-2.6458,3.9624-4.577,6.4427.391-.3391.8926-.5587.618-.1459-2.7853,3.668-.7066,1.9559-2.3206,4.62-1.2956,1.2649-.4278-1.0366-1.8764,1.7565-1.2714,1.4515-.7887-.0342-.5447-.782-1.1587,2.6492-3.1927,4.2764-4.1732,5.5717l.6587-1.36a16.241,16.241,0,0,1-1.2193,2.0425l.8994-.4293c-.5618.683-.9765,1.302-1.1444,1.17-.2247.9406,1.0919-.107.4734,1.6461-.86.8379-1.7572,3.1293-2.55,3.0812,2.2614-2.9237-.7835-.0368.8635-2.6909a8.96,8.96,0,0,1-1.2478,1.833c-.1369.0668-.0459-.1815.0569-.4018-2.48,2.5737-.2781,1.7679-2.3474,4.7831-.0544-.6013-1.0634.2958-1.343.8246.8457-1.2017.9256-.2158.3874,1.0562-1.5867,1.7488-1.2829,2.2109-2.0166,3.1965l.9182-1.0672c.0359.6067-.6793,1.5382-1.5229,2.9466-.3189-.0566.6891-1.3332.2484-.9309-.5026,1.8776-2.9615,2.9168-4.0828,5.2259-.8925.7954-.63-.327-1.3717.4006-1.3083,2.5533-2.2511,2.129-3.7267,4.7351.9087-.3759.9073-.571.0173,1.3915l2.6872-4.1-1.3295,2.9359c.9038-1.17,1.644-2.6678,2.248-3.32-.5828,1.4352-.59,1.2388.1709.9266-1.8273,1.15-2.0879,3.4612-3.927,4.9977l-.9145-.8139c-2.631,2.3717-3.36,5.2925-6.5847,8.5339l1.1078-.978c-.0348.7732-1.7764,2.1825-2.59,3.4308-.211-.3679-.91.2447-1.51.5512.2688.1383-2.2531,2.4435-1.9563,3.2779l-1.7446,1.1545a12.5337,12.5337,0,0,0-2.3567,3.1635,10.9823,10.9823,0,0,1-2.3067,3.0868c.4517-1.0552-.8605-.0965.5791-1.9994-.8251.8413-1.6129,1.5509-1.44,1.7514a7.1761,7.1761,0,0,0-1.339,1.5318,6.2773,6.2773,0,0,1-1.6652,1.6244,3.3126,3.3126,0,0,1-1.0785,1.75c-.157.0445-.1225-.1381-.1225-.1381.1235.1379-1.3376,1.6141-.2134,1.1174a14.1868,14.1868,0,0,0-2.6532,1.8132c-.9246.7288-1.8592,1.57-2.7805,2.4049-1.8377,1.6746-3.6249,3.329-5.1853,3.9242-.9693.8512-2.0378,1.7894-3.084,2.7079-1.05.9154-2.0858,1.8033-3.0325,2.493.0571-.173-.1-.1438.2779-.3783-2.7853,1.6635-.9957,1.9855-4.1751,3.8854-1.8354.6676,1.3941-1.4077.3286-.8808-.5388-.308-1.4012.3843-2.4293,1.2722a13.2662,13.2662,0,0,1-3.4923,2.3046l.4571-.3906a11.9666,11.9666,0,0,0-2.7713,1.9625,21.738,21.738,0,0,1-3.4413,2.5888s.0771-.1589-.07-.1455a52.4016,52.4016,0,0,1-7.3124,5.4888c.6037-.8109,1.0647-.8688.374-.9284-1.1249.729.6637.3614-1.5877,1.8068-.858.2534-2.615,1.0636-3.0409.8358l2.1587-1.2966c-1.3838.1833-2.7956,1.6766-3.9906,2.2578l.0316-.2855c-3.2871,2.0154-3.0606,2.5269-6.6919,4.5293l.4543-.0639c-1.7272,1.5641-1.8058.657-3.5965,2.0962l-.85-.1366c-1.2493.8281-4.3667,2.9379-6.72,4.233,1.1914-1.01,3.8723-2.6485,5.461-3.79a47.4614,47.4614,0,0,0-4.9817,2.9939,10.2955,10.2955,0,0,1,1.6732-.983,30.9219,30.9219,0,0,1-6.1158,3.7744c.0306-.5278-1.7.3107-3.7395,1.2733a29.8767,29.8767,0,0,1-5.4736,2.2489,72.8879,72.8879,0,0,1-7.1518,3.3279l-7.8941,3.2385c2.1793-.3488-1.6324.6958-1.1068,1.02a16.1007,16.1007,0,0,1-1.95.7367l-4.1141,1.2536c-1.002.2188,1.2291-.56,1.0651-.6294-2.914,1.05-1.2884.2588-3.2522.8479.45.0147-.9334.5923-2.6149,1.131l2.4089-.6418c-3.9993,1.6954-3.6431.9052-7.7138,2.4917l1.2695-.5607c-2.0857.8318-7.8754,2.4645-9.9021,3.3818-.3959.0555-.93.0834.0154-.1953-2.5978.6457-5.4683,1.4469-8.2012,2.1975l-3.9445,1.0525c-1.2479.3082-2.427.4951-3.4549.6657l.38-.1681a23.7892,23.7892,0,0,1-2.9176.662c.0561-.0491.377-.1666-.0779-.0814-.5123.1331-2.5734.6742-3.8831.8786l1.0916-.3187c-2.5732.4506-4.524.9209-6.3961,1.2463-1.8649.3642-3.6238.7381-5.7884,1.0925a6.4294,6.4294,0,0,0-2.3191.0488l-2.0094.2165-1.8242.1393.0662-.0473c-6.0567.5322-10.2443,1.3475-15.872,1.7043-1.76-.11-4.7142.0686-7.9386.1092-3.2258.0023-6.7153.03-9.5208-.0922.8582.0748-.1374.3348-1.136.389-1.317-.1281-3.6457.2016-3.4329-.21l.47.0238c-.9891-.4454-3.6924-.4442-5.8024-.5346l-.3652.5812a79.4068,79.4068,0,0,0-9.6648-.8651c-1.6518-.07-3.2267-.1262-4.5719-.2365a12.0934,12.0934,0,0,1-3.1822-.6876c-1.34.0345-2.9813-.1489-4.3139-.1029l.1116-.399c-1.8271-.27-3.2006-.4238-4.6745-.6585-1.4743-.2313-3.0582-.456-5.3206-.7323l.96-.179c-2.5345-.41-3.3854.81-5.7488.5175l-.6057-.7893c-2.2123-.3868-4.4131-.9266-6.6161-1.3913a48.8891,48.8891,0,0,0-6.6422-.9848c.0915-.0913.2606-.2732.9771-.1543-2.0664-.4511-7.8919-2.1488-7.3542-.986.0784-.626-4.5042-1.0672-6.9365-1.3385l.4805-.4015a14.0749,14.0749,0,0,1-5.0755-.1638c-.646-.2169-.4829-.5247.3639-.1959-2.1361-.7744-1.8229.0271-4.4136-.9168l1.0678-.051a6.9178,6.9178,0,0,0-3.4387-.38c-1.4681-.18-4.2422-1.2394-4.4492-1.7689a4.97,4.97,0,0,1-2.98-.3378c-.13-.2153.378-.1766.6331-.1556-3.6344-1.4219-5.7252-1.0516-8.1426-2.3032-.0046-.1726-.1463-.304-.3429-.4181,2.9438.9356,5.3381,1.6133,5.1,1.5963.129-.4391-2.24-1.2087-.1564-1.2612-1.008-.1137-2.3885-.2258-3.8-.4313a18.935,18.935,0,0,1-3.962-1.028,1.185,1.185,0,0,1-.2585-.2459l.255.0284a6.3624,6.3624,0,0,0-1.4857-.3976c-.7161-.3057-1.1682-.5069-1.8756-.739-.1588-.4346-2.6613-1.049-3.8236-1.492-.06.492-1.5736-.1163-.2616.7619-.1755-.0976.2411.0226,1.0293.2751a4.6163,4.6163,0,0,0,.5174.1266l-.0939.0125,2.954.92a6.8891,6.8891,0,0,1-3.28-.8718c-.704.0853-1.4723.155-1.8958.1652-1.3922-1.2022-4.3719-2.6179-4.6647-3.15-3.681-.9864-8.4509-2.9266-11.012-2.9481-1.0482-.2933-1.0656-.69-1.392-.9619a11.9776,11.9776,0,0,0,1.656.446c-2.0908-.5888-5.9794-2.2918-6.68-1.9469-2.4314-1.2574,1.6257.0774-1.888-1.2278l.5371.0257a42.5429,42.5429,0,0,0-9.0967-3.5848,40.0517,40.0517,0,0,1-9.4729-4.2414,2.7832,2.7832,0,0,1,.7963.5743c-2.0564-1.1032-4.182-2.1395-6.3382-3.1513l-6.4682-3.1029a141.3587,141.3587,0,0,1-12.4608-6.7238,22.8091,22.8091,0,0,0-4.0868-1.9036l-.357-.5184-2.5389-1.0608a39.5092,39.5092,0,0,1-4.6062-2.854,49.5252,49.5252,0,0,0-5.3191-3.1648l.4732.4381c-1.51-.9066-4.7987-2.8474-4.48-2.8011a4.7893,4.7893,0,0,1-1.11-.6137l-.0009-.0984c-1.258-.7086-2.4936-1.4536-3.735-2.1905-2.8083-1.8342.5863.0618-3.555-2.5463-1.5616-.9359-4.4281-2.7-3.8654-2.3124a17.702,17.702,0,0,1,1.5778,1.1154l-1.3944-.91c-.3129-.0756-1.3893-.773,1.8833,1.6883.784.5367,1.5834,1.05,2.3816,1.5656l.7086.5934-1.9668-1.375a25.16,25.16,0,0,0,2.634,1.7994,7.7968,7.7968,0,0,0,.9282.7639l2.4245,1.4054c.2316.2674-1.1307-.563.3928.5423,1.1423.6477-.9361-.87.908.2745a10.0524,10.0524,0,0,0,2.0881,1.5c.1514.1823-.1556.0334-.7-.2931,1.2306.7212,3.1642,2.0568,3.8742,2.3074,1.1074.9141,4.0856,2.544,3.8049,2.7385.42.1725,2.27,1.0973,3.3959,1.7664-1.1277-.4429-.0869.2051,1.1372.9776,1.2259.769,2.6554,1.6269,2.256,1.6868,1.7232.5573,5.5887,3.1275,8.4549,4.4319a2.7874,2.7874,0,0,1-.7371-.3137c1.5158.9107,1.8851,1.3076,2.8291,1.951.3987-.2611,2.8606.97,4.2937,1.4288,1.7,1.421-1.4006-.1615-.9956.5275.0717-.3689,3.4691,1.4933,2.9668.8606,1.3343,1.0262,1.202.7827,1.7775,1.532.5281-.3951,1.4113.6308,2.798.9337,1.991,1.3788.2883.8042,2.7077,1.8583.518.3673.2272.341-.1908.2169C333.7119,647.0458,333.1688,646.82,333.1688,646.82Zm58.3051,22.9433-.003.0093-1.2383-.3752Zm5.0239,1.5817-2.18-.6827c-.1249-.22.1176-.3272.6183-.155C394.6257,670.5378,395.7866,670.9827,396.4978,671.3454Zm-9.53-6.611c.8091.1851,1.0426.36,1.1191.4892-.3746-.11-.8147-.2333-1.3961-.3836-.0287.01-.0825.0146-.112.0268A.8176.8176,0,0,1,386.9678,664.7344Z" transform="translate(-212 -325.0221)"/><path class="cls-5" d="M385.3532,664.8676c-.1164-.0289-.1854-.0315-.3337-.0786.1459.0962.2862.1834.4314.2655l.3258-.0478Z" transform="translate(-212 -325.0221)"/><path class="cls-5" d="M784.659,493.4586l-.1072.0357a.9214.9214,0,0,1,.244-.0324A.7937.7937,0,0,1,784.659,493.4586Z" transform="translate(-212 -325.0221)"/><polygon class="cls-5" points="255.744 360.641 255.745 360.543 255.278 360.593 255.744 360.641"/><path class="cls-5" d="M813.0028,488.836a.968.968,0,0,0,.3754.0914A1.2511,1.2511,0,0,0,813.0028,488.836Z" transform="translate(-212 -325.0221)"/><path class="cls-5" d="M825.32,489.7484l1.7135.3577C826.2964,489.9321,825.7542,489.8278,825.32,489.7484Z" transform="translate(-212 -325.0221)"/><path class="cls-5" d="M834.6216,491.7278a.4468.4468,0,0,0,.216-.0925l-.0176-.0067Z" transform="translate(-212 -325.0221)"/><path class="cls-5" d="M721.7425,571.8964a3.4544,3.4544,0,0,0-.1931.32C721.139,572.9965,721.445,572.485,721.7425,571.8964Z" transform="translate(-212 -325.0221)"/><path class="cls-5" d="M745.8907,533.3363c-.1848.4566-.37.9041-.5968,1.3564C745.7871,534.0531,746.1549,533.5466,745.8907,533.3363Z" transform="translate(-212 -325.0221)"/><path class="cls-5" d="M689.0562,611.21c.0016-.006-.0032-.0033-.0026-.01l-.2322.2159Z" transform="translate(-212 -325.0221)"/><path class="cls-5" d="M744.1119,536.4377a7.4036,7.4036,0,0,0,1.182-1.745A11.433,11.433,0,0,0,744.1119,536.4377Z" transform="translate(-212 -325.0221)"/><path class="cls-5" d="M872.5219,508.0173l.3961.2367c-.0021-.011.0249-.0032.0583.01Z" transform="translate(-212 -325.0221)"/><path class="cls-5" d="M872.9763,508.2642l.4508.2459A4.4009,4.4009,0,0,0,872.9763,508.2642Z" transform="translate(-212 -325.0221)"/><path class="cls-5" d="M874.3751,509.0294l-.948-.5193A10.3261,10.3261,0,0,0,874.3751,509.0294Z" transform="translate(-212 -325.0221)"/><path class="cls-5" d="M861.4592,501.8329l-.1644.0018A.206.206,0,0,0,861.4592,501.8329Z" transform="translate(-212 -325.0221)"/><path class="cls-5" d="M857.9706,500.2051c.8205.412,2.0085,1.1294,3.1894,1.63l.1348-.0007C860.6989,501.68,858.8156,500.4641,857.9706,500.2051Z" transform="translate(-212 -325.0221)"/><path class="cls-5" d="M843.5521,492.9321l3.0078,1.2347c-.4926-.302-1.14-.7107.25-.2026C843.0936,492.1813,847.5158,494.4952,843.5521,492.9321Z" transform="translate(-212 -325.0221)"/><path class="cls-5" d="M833.938,489.8542c1.7083.3926.0253-.1866.1316-.2349C832.9655,489.4446,832.7,489.4079,833.938,489.8542Z" transform="translate(-212 -325.0221)"/><path class="cls-5" d="M765.5464,505.99l-.2028-.4772C764.3663,506.4686,765.4651,505.66,765.5464,505.99Z" transform="translate(-212 -325.0221)"/><polygon class="cls-5" points="546.007 192.888 547.07 192.095 547.102 191.315 546.007 192.888"/><path class="cls-5" d="M749.9979,522.0436l.3046-.513c-.4132.6343-.8309,1.2651-1.2171,1.914Q749.5246,522.7343,749.9979,522.0436Z" transform="translate(-212 -325.0221)"/><path class="cls-5" d="M675.4677,617.2431l.6747.1761C676.7518,616.7454,676.4689,616.1251,675.4677,617.2431Z" transform="translate(-212 -325.0221)"/><path class="cls-5" d="M632.47,646.834a6.5545,6.5545,0,0,0-2.6491,1.3162C630.8636,647.6,631.9727,647.1754,632.47,646.834Z" transform="translate(-212 -325.0221)"/><path class="cls-5" d="M481.8618,683.3364l1.0558-.0825c-.6616.0115-1.3233.0206-1.9839-.005Z" transform="translate(-212 -325.0221)"/></svg>