<svg id="Layer_1" data-name="Layer 1" xmlns="http://www.w3.org/2000/svg" width="412.3653" height="383.9095" viewBox="0 0 412.3653 383.9095"><defs><style>.cls-1{opacity:0.5;}.cls-2{fill:none;stroke:#fff;stroke-linecap:round;stroke-linejoin:round;stroke-width:4.48px;}.cls-3{fill:#fff;}</style></defs><g class="cls-1"><path class="cls-2" d="M94.0227,405.1037c2.6674-34.7814,37.9554-58.4011,56.3591-85.2408,18.9865-27.69,28.7837-68.9086,59.0451-83.451,29.332-14.0958,67.2528,3.5788,102.0344,6.2462s74.9539-9.0182,101.7935,9.3854c27.69,18.9866,31.0877,61.217,45.63,91.4784,14.0958,29.332,45.37,58.0562,42.7023,92.8378s-37.9555,58.4011-56.3591,85.2408c-18.9866,27.69-28.7839,68.9086-59.0451,83.451-29.3321,14.0958-67.2528-3.5788-102.0344-6.2462s-74.9539,9.0183-101.7937-9.3854c-27.69-18.9866-31.0875-61.217-45.63-91.4784C122.6292,468.61,91.3554,439.8853,94.0227,405.1037Z" transform="translate(-91.6222 -228.7769)"/><path class="cls-2" d="M116.7989,367.6893c9.0023-30.72,46.9216-44.1557,68.5432-64.7562,22.3066-21.2532,37.9494-58.1975,67.8807-65.505,29.0123-7.0829,59.6533,18.0387,90.3736,27.041s70.074,4.3923,90.6745,26.0139c21.2533,22.3067,14.4818,61.8506,21.7891,91.7819,7.083,29.0122,31.7532,60.789,22.7509,91.5092S431.8893,517.93,410.2677,538.53c-22.3068,21.2531-37.9495,58.1974-67.8808,65.5049-29.0122,7.0829-59.6533-18.0387-90.3736-27.041s-70.0739-4.3922-90.6745-26.0138c-21.2533-22.3068-14.4818-61.8507-21.7891-91.782C132.4668,430.1863,107.7965,398.41,116.7989,367.6893Z" transform="translate(-91.6222 -228.7769)"/></g><path class="cls-3" d="M180.3405,484.6108a50.9715,50.9715,0,0,1,1.7225-11.11,30.8991,30.8991,0,0,1,4.6506-11.11q7.404-10.5045,13.6075-19.2917,6.201-8.7845,11.0238-15.1577a124.7043,124.7043,0,0,1,9.6458-11.3683q29.455-31.8651,42.201-47.6272t12.7463-21.9615a7.2257,7.2257,0,0,0-3.7894-6.4593q-3.7908-2.3253-9.99-2.3253-12.75,0-32.0384,9.043-19.2928,9.0429-45.0425,23.5127-25.7521,14.4687-28.6791,14.4687-4.6506,0-4.6507-6.7176,0-5.6841,3.6172-16.1922,2.7573-11.3683,4.4784-17.6553a30.5966,30.5966,0,0,1,5.77-11.2822q4.0452-4.993,13.4353-10.8516,9.3861-5.8538,28.8513-16.0189l1.7225,6.3731a217.0636,217.0636,0,0,1,30.5743-9.99q14.3792-3.4428,24.5451-3.4449,19.9794,0,28.3346,6.8037,8.3527,6.8064,8.354,29.54,0,12.4017-3.6172,20.67T283.6891,379.54q-23.9436,34.7943-36,48.2291-34.97,39.9618-34.9666,46.6789,0,3.79,4.9952,3.7894,4.1338,0,11.7127-5.8564a180.8008,180.8008,0,0,0,18.2587-16.88Q258.3676,444.48,277.316,423.98q20.1528-21.7031,34.0187-38.3249,13.8633-16.6212,22.8227-28.4217,8.9542-11.7948,9.4736-12.66a108.2574,108.2574,0,0,1,19.206-18.6887q9.9021-7.3185,12.6591-7.3205,2.067,0,4.824,3.7894a38.864,38.864,0,0,1,4.7368,8.9568,24.4678,24.4678,0,0,1,1.9808,7.9234q0,.8639-4.1339,8.354-4.134,7.4927-8.9579,15.5022t-15.5022,24.5462q-23.4261,36.3445-35.8268,61.0615t-12.4018,32.4685a7.6682,7.6682,0,0,0,1.9808,5.0813q1.9783,2.3253,4.0478,2.3253,2.7534,0,9.99-4.3923a99.72,99.72,0,0,0,16.0189-12.66,229.731,229.731,0,0,0,21.0136-22.9089,304.9466,304.9466,0,0,0,18.7759-26.526q9.3013-14.6383,16.5357-27.7317,7.2344-13.0881,14.641-27.56l-2.9282-8.7856a17.21,17.21,0,0,1-.689-5.34q0-2.5836,10.1626-16.794t13.4352-14.21q3.6173,0,6.1148,5.2535a24.4984,24.4984,0,0,1,2.4976,10.5932q0,5.8585-5.2536,23.3395-5.256,17.4851-16.3634,42.2876a393.0688,393.0688,0,0,1-27.4734,50.4683,214.8449,214.8449,0,0,1-30.2293,38.3249q-16.1093,15.9333-29.0241,23.6839-12.9184,7.7511-19.1194,7.7511-7.0647,0-14.8132-6.2008-6.3744-5.5146-9.043-9.9042a26.6219,26.6219,0,0,1-3.531-9.56,73.9933,73.9933,0,0,1-.8612-12.0573q0-14.6384,8.0955-34.2771,8.0944-19.6362,24.1146-48.9181-50.1239,60.9753-77.5972,88.7071-27.4767,27.7342-40.22,27.7317-8.4414,0-14.2965-10.0764Q180.3393,498.7351,180.3405,484.6108Z" transform="translate(-91.6222 -228.7769)"/><path class="cls-3" d="M367.6319,500.59v-6.343a95.9216,95.9216,0,0,0,8.0012-10.6347,10.7628,10.7628,0,0,1-4.5365-2.6345,6.77,6.77,0,0,1-1.4154-4.6839q0-3.5129,2.9272-8.879a50.9339,50.9339,0,0,1,7.2209-10.05q4.2927-4.6833,7.805-6.0494a5.896,5.896,0,0,1,2.6356-.6828q1.9487,0,1.9508,1.8533,0,1.6606-3.0247,6.7331,20.0983-3.1221,25.369-3.1222a7.06,7.06,0,0,1,2.83.39q1.6576.8778,2.7321,4.0976a20.28,20.28,0,0,1,1.0729,6.44,7.5578,7.5578,0,0,1-1.8044,4.439,88.8276,88.8276,0,0,1-6.1957,6.9771,58.1189,58.1189,0,0,0-8.685,12.0987q-3.5113,6.5387-3.5124,9.8555,0,4.5868,5.6593,4.5853,5.95,0,20.6852-12.0988v6.5371q-8.1,8.4888-13.3668,13.3678a71.6224,71.6224,0,0,1-9.7579,7.7573q-4.4887,2.8794-8,2.8784a8.1729,8.1729,0,0,1-6.8308-3.7562q-2.733-3.7559-2.732-10.88a26.1772,26.1772,0,0,1,2.1468-9.5628,66.2344,66.2344,0,0,1,6.2932-11.66,143.2685,143.2685,0,0,1,9.318-12.5377q-2.7331.5853-6.147,1.2192-3.4164.6351-7.22,1.3168-3.807.6848-5.8543,1.0739A70.3932,70.3932,0,0,1,367.6319,500.59Z" transform="translate(-91.6222 -228.7769)"/><path class="cls-3" d="M215.7778,530.4971l3.8965,10.0039,4.0713-10.731,3.8974,10.731,4.14-10.0039h2.4521l-6.6884,15.9175-3.8487-10.6055-4.0136,10.6147-6.3594-15.9267Z" transform="translate(-91.6222 -228.7769)"/><path class="cls-3" d="M244.355,532.62h-6.001v3.5962H244.18v2.1231H238.354v5.0019h6.001v2.1231h-8.26V530.4971h8.26Z" transform="translate(-91.6222 -228.7769)"/><path class="cls-3" d="M249.58,530.4971v12.8442h4.4013v2.1231h-6.66V530.4971Z" transform="translate(-91.6222 -228.7769)"/><path class="cls-3" d="M258.3813,530.4971v12.8442h4.4014v2.1231h-6.66V530.4971Z" transform="translate(-91.6222 -228.7769)"/><path class="cls-3" d="M264.9243,545.4644V529.479l10.916,11.4195V530.4971h2.2588v15.8784l-10.916-11.39v10.479Z" transform="translate(-91.6222 -228.7769)"/><path class="cls-3" d="M289.9448,532.62h-6.001v3.5962H289.77v2.1231h-5.8262v5.0019h6.001v2.1231h-8.26V530.4971h8.26Z" transform="translate(-91.6222 -228.7769)"/><path class="cls-3" d="M301.3735,532.7266l-1.832,1.0859a3.16,3.16,0,0,0-.9785-1.1636,2.6046,2.6046,0,0,0-2.8116.2232,1.6516,1.6516,0,0,0-.62,1.3183q0,1.0957,1.628,1.7642l1.4931.6108a6.3746,6.3746,0,0,1,2.666,1.7984,4.0557,4.0557,0,0,1,.8428,2.6025,4.5742,4.5742,0,0,1-1.376,3.4121,4.7242,4.7242,0,0,1-3.4414,1.3575,4.6026,4.6026,0,0,1-3.2187-1.1539,5.3163,5.3163,0,0,1-1.5606-3.247l2.2881-.5044a3.8891,3.8891,0,0,0,.543,1.8227,2.5795,2.5795,0,0,0,3.79.2618,2.4506,2.4506,0,0,0,.6983-1.7935,2.5377,2.5377,0,0,0-.1211-.8,2.0309,2.0309,0,0,0-.3789-.669,3.01,3.01,0,0,0-.6641-.5717,6.423,6.423,0,0,0-.9688-.5093l-1.4443-.6006q-3.0732-1.2993-3.0732-3.8a3.6051,3.6051,0,0,1,1.289-2.8208,4.6589,4.6589,0,0,1,3.209-1.144A4.4788,4.4788,0,0,1,301.3735,532.7266Z" transform="translate(-91.6222 -228.7769)"/><path class="cls-3" d="M312.9477,532.7266l-1.832,1.0859a3.16,3.16,0,0,0-.9785-1.1636,2.6045,2.6045,0,0,0-2.8115.2232,1.6514,1.6514,0,0,0-.62,1.3183q0,1.0957,1.628,1.7642l1.4931.6108a6.375,6.375,0,0,1,2.6661,1.7984,4.0562,4.0562,0,0,1,.8427,2.6025,4.5742,4.5742,0,0,1-1.376,3.4121,4.7241,4.7241,0,0,1-3.4414,1.3575,4.6026,4.6026,0,0,1-3.2187-1.1539,5.3163,5.3163,0,0,1-1.5606-3.247l2.2881-.5044a3.8891,3.8891,0,0,0,.543,1.8227,2.5795,2.5795,0,0,0,3.79.2618,2.4506,2.4506,0,0,0,.6983-1.7935,2.5349,2.5349,0,0,0-.1211-.8,2.0291,2.0291,0,0,0-.3789-.669,3.01,3.01,0,0,0-.6641-.5717,6.4264,6.4264,0,0,0-.9687-.5093l-1.4444-.6006q-3.0732-1.2993-3.0732-3.8a3.6049,3.6049,0,0,1,1.2891-2.8208,4.6584,4.6584,0,0,1,3.2089-1.144A4.4788,4.4788,0,0,1,312.9477,532.7266Z" transform="translate(-91.6222 -228.7769)"/><path class="cls-3" d="M327.2563,539.086l4.6338,6.3784h-2.7627l-4.2754-6.1265h-.4072v6.1265H322.186V530.4971h2.6465a6.6136,6.6136,0,0,1,4.2852,1.1147,4.0946,4.0946,0,0,1,1.4541,3.2764,4.2534,4.2534,0,0,1-.9112,2.7339A4.0626,4.0626,0,0,1,327.2563,539.086Zm-2.8115-1.7159h.7178q3.2079,0,3.209-2.4526,0-2.2976-3.1221-2.2974h-.8047Z" transform="translate(-91.6222 -228.7769)"/><path class="cls-3" d="M333.0532,537.9126a7.33,7.33,0,0,1,2.3174-5.4282,7.6228,7.6228,0,0,1,5.5439-2.2686A7.8283,7.8283,0,0,1,348.7,538a7.3594,7.3594,0,0,1-2.3076,5.4771,7.9083,7.9083,0,0,1-10.7989.2519A7.3532,7.3532,0,0,1,333.0532,537.9126Zm2.2783.0293a5.41,5.41,0,0,0,1.667,4.0811,5.5228,5.5228,0,0,0,7.8037-.0288,5.809,5.809,0,0,0,.02-8.0269,5.5818,5.5818,0,0,0-7.8809,0A5.3988,5.3988,0,0,0,335.3315,537.9419Z" transform="translate(-91.6222 -228.7769)"/><path class="cls-3" d="M353.7983,530.4971v9.0151a4.9539,4.9539,0,0,0,.6309,2.8208,3.3693,3.3693,0,0,0,5.3017,0,4.8759,4.8759,0,0,0,.6309-2.8208v-9.0151H362.62v9.6357a5.3948,5.3948,0,0,1-1.4727,3.897,5.7,5.7,0,0,1-8.1337,0,5.3914,5.3914,0,0,1-1.4737-3.897v-9.6357Z" transform="translate(-91.6222 -228.7769)"/><path class="cls-3" d="M370.3364,532.62v12.8443h-2.2588V532.62h-3.4414v-2.123h9.1318v2.123Z" transform="translate(-91.6222 -228.7769)"/><path class="cls-3" d="M384.0434,532.62h-6.0009v3.5962h5.8261v2.1231h-5.8261v5.0019h6.0009v2.1231h-8.26V530.4971h8.26Z" transform="translate(-91.6222 -228.7769)"/></svg>